<mxfile host="Electron" agent="Mozilla/5.0 (Windows NT 10.0; Win64; x64) AppleWebKit/537.36 (KHTML, like Gecko) draw.io/24.7.8 Chrome/128.0.6613.36 Electron/32.0.1 Safari/537.36" version="24.7.8">
  <diagram id="C5RBs43oDa-KdzZeNtuy" name="Page-1">
    <mxGraphModel dx="1434" dy="836" grid="1" gridSize="10" guides="1" tooltips="1" connect="1" arrows="1" fold="1" page="1" pageScale="1" pageWidth="827" pageHeight="1169" math="0" shadow="0">
      <root>
        <mxCell id="WIyWlLk6GJQsqaUBKTNV-0" />
        <mxCell id="WIyWlLk6GJQsqaUBKTNV-1" parent="WIyWlLk6GJQsqaUBKTNV-0" />
        <mxCell id="WIyWlLk6GJQsqaUBKTNV-2" value="" style="rounded=0;html=1;jettySize=auto;orthogonalLoop=1;fontSize=11;endArrow=block;endFill=0;endSize=8;strokeWidth=1;shadow=0;labelBackgroundColor=none;edgeStyle=orthogonalEdgeStyle;" parent="WIyWlLk6GJQsqaUBKTNV-1" source="WIyWlLk6GJQsqaUBKTNV-3" target="WIyWlLk6GJQsqaUBKTNV-6" edge="1">
          <mxGeometry relative="1" as="geometry" />
        </mxCell>
        <mxCell id="WIyWlLk6GJQsqaUBKTNV-3" value="&lt;font style=&quot;font-size: 14px;&quot;&gt;Début&lt;/font&gt;" style="rounded=1;whiteSpace=wrap;html=1;fontSize=12;glass=0;strokeWidth=1;shadow=0;fillColor=#dae8fc;strokeColor=#6c8ebf;" parent="WIyWlLk6GJQsqaUBKTNV-1" vertex="1">
          <mxGeometry x="125" y="20" width="190" height="40" as="geometry" />
        </mxCell>
        <mxCell id="WIyWlLk6GJQsqaUBKTNV-6" value="&lt;font style=&quot;font-size: 8px;&quot;&gt;Connexion de l&#39;utilisateur&lt;/font&gt;" style="rhombus;whiteSpace=wrap;html=1;shadow=0;fontFamily=Helvetica;fontSize=12;align=center;strokeWidth=1;spacing=6;spacingTop=-4;fillColor=#ffe6cc;strokeColor=#d79b00;" parent="WIyWlLk6GJQsqaUBKTNV-1" vertex="1">
          <mxGeometry x="160" y="120" width="120" height="120" as="geometry" />
        </mxCell>
        <mxCell id="8gCv4Cx4uOkbRDqvgKm4-1" value="" style="rounded=0;html=1;jettySize=auto;orthogonalLoop=1;fontSize=11;endArrow=block;endFill=0;endSize=8;strokeWidth=1;shadow=0;labelBackgroundColor=none;edgeStyle=orthogonalEdgeStyle;" edge="1" parent="WIyWlLk6GJQsqaUBKTNV-1" source="WIyWlLk6GJQsqaUBKTNV-6" target="8gCv4Cx4uOkbRDqvgKm4-0">
          <mxGeometry y="20" relative="1" as="geometry">
            <mxPoint as="offset" />
            <mxPoint x="215" y="220" as="sourcePoint" />
            <mxPoint x="215" y="410" as="targetPoint" />
            <Array as="points" />
          </mxGeometry>
        </mxCell>
        <mxCell id="8gCv4Cx4uOkbRDqvgKm4-0" value="&lt;font style=&quot;font-size: 8px;&quot;&gt;Accès au tableau de bord de l&#39;utilisateur&lt;/font&gt;" style="rhombus;whiteSpace=wrap;html=1;shadow=0;fontFamily=Helvetica;fontSize=12;align=center;strokeWidth=1;spacing=6;spacingTop=-4;fillColor=#ffe6cc;strokeColor=#d79b00;" vertex="1" parent="WIyWlLk6GJQsqaUBKTNV-1">
          <mxGeometry x="160" y="280" width="120" height="120" as="geometry" />
        </mxCell>
        <mxCell id="8gCv4Cx4uOkbRDqvgKm4-35" value="" style="edgeStyle=orthogonalEdgeStyle;rounded=0;orthogonalLoop=1;jettySize=auto;html=1;" edge="1" parent="WIyWlLk6GJQsqaUBKTNV-1" source="8gCv4Cx4uOkbRDqvgKm4-2" target="8gCv4Cx4uOkbRDqvgKm4-34">
          <mxGeometry relative="1" as="geometry" />
        </mxCell>
        <mxCell id="8gCv4Cx4uOkbRDqvgKm4-2" value="&lt;font style=&quot;font-size: 8px;&quot;&gt;Création d&#39;un nouveau ticket&lt;/font&gt;" style="rhombus;whiteSpace=wrap;html=1;shadow=0;fontFamily=Helvetica;fontSize=12;align=center;strokeWidth=1;spacing=6;spacingTop=-4;fillColor=#ffe6cc;strokeColor=#d79b00;" vertex="1" parent="WIyWlLk6GJQsqaUBKTNV-1">
          <mxGeometry x="160" y="440" width="120" height="120" as="geometry" />
        </mxCell>
        <mxCell id="8gCv4Cx4uOkbRDqvgKm4-4" value="" style="endArrow=classic;html=1;rounded=0;exitX=0.5;exitY=1;exitDx=0;exitDy=0;" edge="1" parent="WIyWlLk6GJQsqaUBKTNV-1" source="8gCv4Cx4uOkbRDqvgKm4-0">
          <mxGeometry width="50" height="50" relative="1" as="geometry">
            <mxPoint x="180" y="450" as="sourcePoint" />
            <mxPoint x="220" y="440" as="targetPoint" />
          </mxGeometry>
        </mxCell>
        <mxCell id="8gCv4Cx4uOkbRDqvgKm4-13" value="" style="edgeStyle=orthogonalEdgeStyle;rounded=0;orthogonalLoop=1;jettySize=auto;html=1;" edge="1" parent="WIyWlLk6GJQsqaUBKTNV-1" target="8gCv4Cx4uOkbRDqvgKm4-9">
          <mxGeometry relative="1" as="geometry">
            <mxPoint x="220" y="640" as="sourcePoint" />
          </mxGeometry>
        </mxCell>
        <mxCell id="8gCv4Cx4uOkbRDqvgKm4-9" value="&lt;font style=&quot;font-size: 8px;&quot;&gt;Soumission du ticket&lt;/font&gt;" style="rhombus;whiteSpace=wrap;html=1;shadow=0;fontFamily=Helvetica;fontSize=12;align=center;strokeWidth=1;spacing=6;spacingTop=-4;fillColor=#ffe6cc;strokeColor=#d79b00;" vertex="1" parent="WIyWlLk6GJQsqaUBKTNV-1">
          <mxGeometry x="160" y="760" width="120" height="120" as="geometry" />
        </mxCell>
        <mxCell id="8gCv4Cx4uOkbRDqvgKm4-18" value="" style="rounded=0;html=1;jettySize=auto;orthogonalLoop=1;fontSize=11;endArrow=block;endFill=0;endSize=8;strokeWidth=1;shadow=0;labelBackgroundColor=none;edgeStyle=orthogonalEdgeStyle;" edge="1" parent="WIyWlLk6GJQsqaUBKTNV-1" source="8gCv4Cx4uOkbRDqvgKm4-9" target="8gCv4Cx4uOkbRDqvgKm4-17">
          <mxGeometry x="0.3333" y="20" relative="1" as="geometry">
            <mxPoint as="offset" />
            <mxPoint x="220" y="810" as="sourcePoint" />
            <mxPoint x="220" y="1600" as="targetPoint" />
          </mxGeometry>
        </mxCell>
        <mxCell id="8gCv4Cx4uOkbRDqvgKm4-38" value="" style="edgeStyle=orthogonalEdgeStyle;rounded=0;orthogonalLoop=1;jettySize=auto;html=1;" edge="1" parent="WIyWlLk6GJQsqaUBKTNV-1" source="8gCv4Cx4uOkbRDqvgKm4-17">
          <mxGeometry relative="1" as="geometry">
            <mxPoint x="220" y="1100" as="targetPoint" />
          </mxGeometry>
        </mxCell>
        <mxCell id="8gCv4Cx4uOkbRDqvgKm4-17" value="&lt;font style=&quot;font-size: 8px;&quot;&gt;Vetification côté serveur&lt;/font&gt;" style="rhombus;whiteSpace=wrap;html=1;shadow=0;fontFamily=Helvetica;fontSize=12;align=center;strokeWidth=1;spacing=6;spacingTop=-4;fillColor=#ffe6cc;strokeColor=#d79b00;" vertex="1" parent="WIyWlLk6GJQsqaUBKTNV-1">
          <mxGeometry x="160" y="950" width="120" height="120" as="geometry" />
        </mxCell>
        <mxCell id="8gCv4Cx4uOkbRDqvgKm4-21" value="" style="rounded=0;html=1;jettySize=auto;orthogonalLoop=1;fontSize=11;endArrow=block;endFill=0;endSize=8;strokeWidth=1;shadow=0;labelBackgroundColor=none;edgeStyle=orthogonalEdgeStyle;" edge="1" parent="WIyWlLk6GJQsqaUBKTNV-1">
          <mxGeometry x="0.3333" y="20" relative="1" as="geometry">
            <mxPoint as="offset" />
            <mxPoint x="220" y="1169" as="sourcePoint" />
            <mxPoint x="220" y="1100" as="targetPoint" />
          </mxGeometry>
        </mxCell>
        <mxCell id="8gCv4Cx4uOkbRDqvgKm4-32" value="&lt;font style=&quot;font-size: 18px;&quot;&gt;&lt;b&gt;Exemple de Diagramme de Flux global&lt;/b&gt;&lt;/font&gt;" style="text;html=1;align=center;verticalAlign=middle;resizable=0;points=[];autosize=1;strokeColor=none;fillColor=none;" vertex="1" parent="WIyWlLk6GJQsqaUBKTNV-1">
          <mxGeometry x="455" y="20" width="350" height="40" as="geometry" />
        </mxCell>
        <mxCell id="8gCv4Cx4uOkbRDqvgKm4-34" value="&lt;font style=&quot;font-size: 8px;&quot;&gt;Saisie des informations du ticket&lt;/font&gt;" style="rhombus;whiteSpace=wrap;html=1;shadow=0;fontFamily=Helvetica;fontSize=12;align=center;strokeWidth=1;spacing=6;spacingTop=-4;fillColor=#ffe6cc;strokeColor=#d79b00;" vertex="1" parent="WIyWlLk6GJQsqaUBKTNV-1">
          <mxGeometry x="160" y="585" width="120" height="120" as="geometry" />
        </mxCell>
        <mxCell id="8gCv4Cx4uOkbRDqvgKm4-37" value="" style="rounded=0;html=1;jettySize=auto;orthogonalLoop=1;fontSize=11;endArrow=block;endFill=0;endSize=8;strokeWidth=1;shadow=0;labelBackgroundColor=none;edgeStyle=orthogonalEdgeStyle;" edge="1" parent="WIyWlLk6GJQsqaUBKTNV-1" target="8gCv4Cx4uOkbRDqvgKm4-22">
          <mxGeometry x="0.3333" y="20" relative="1" as="geometry">
            <mxPoint as="offset" />
            <mxPoint x="220" y="1220" as="sourcePoint" />
            <mxPoint x="220" y="1640" as="targetPoint" />
          </mxGeometry>
        </mxCell>
        <mxCell id="8gCv4Cx4uOkbRDqvgKm4-22" value="&lt;font style=&quot;font-size: 8px;&quot;&gt;Stockage du ticket&lt;/font&gt;" style="rhombus;whiteSpace=wrap;html=1;shadow=0;fontFamily=Helvetica;fontSize=12;align=center;strokeWidth=1;spacing=6;spacingTop=-4;fillColor=#ffe6cc;strokeColor=#d79b00;" vertex="1" parent="WIyWlLk6GJQsqaUBKTNV-1">
          <mxGeometry x="160" y="1200" width="120" height="120" as="geometry" />
        </mxCell>
        <mxCell id="8gCv4Cx4uOkbRDqvgKm4-39" value="Ticket validé" style="rounded=0;whiteSpace=wrap;html=1;fillColor=#f8cecc;strokeColor=#b85450;" vertex="1" parent="WIyWlLk6GJQsqaUBKTNV-1">
          <mxGeometry x="120" y="1120" width="200" height="50" as="geometry" />
        </mxCell>
        <mxCell id="8gCv4Cx4uOkbRDqvgKm4-40" value="Ticket invalidé" style="rounded=0;whiteSpace=wrap;html=1;fillColor=#f8cecc;strokeColor=#b85450;" vertex="1" parent="WIyWlLk6GJQsqaUBKTNV-1">
          <mxGeometry x="400" y="1119" width="200" height="50" as="geometry" />
        </mxCell>
        <mxCell id="8gCv4Cx4uOkbRDqvgKm4-41" value="" style="endArrow=none;dashed=1;html=1;dashPattern=1 3;strokeWidth=2;rounded=0;" edge="1" parent="WIyWlLk6GJQsqaUBKTNV-1">
          <mxGeometry width="50" height="50" relative="1" as="geometry">
            <mxPoint x="240" y="1090" as="sourcePoint" />
            <mxPoint x="520" y="1090" as="targetPoint" />
          </mxGeometry>
        </mxCell>
        <mxCell id="8gCv4Cx4uOkbRDqvgKm4-42" value="" style="endArrow=classic;html=1;rounded=0;" edge="1" parent="WIyWlLk6GJQsqaUBKTNV-1">
          <mxGeometry width="50" height="50" relative="1" as="geometry">
            <mxPoint x="520" y="1090" as="sourcePoint" />
            <mxPoint x="520" y="1110" as="targetPoint" />
          </mxGeometry>
        </mxCell>
        <mxCell id="8gCv4Cx4uOkbRDqvgKm4-43" value="Message d&#39;erreur" style="rounded=0;whiteSpace=wrap;html=1;fillColor=#f8cecc;strokeColor=#b85450;" vertex="1" parent="WIyWlLk6GJQsqaUBKTNV-1">
          <mxGeometry x="400" y="1240" width="200" height="50" as="geometry" />
        </mxCell>
        <mxCell id="8gCv4Cx4uOkbRDqvgKm4-44" value="" style="endArrow=classic;html=1;rounded=0;" edge="1" parent="WIyWlLk6GJQsqaUBKTNV-1">
          <mxGeometry width="50" height="50" relative="1" as="geometry">
            <mxPoint x="499.5" y="1180" as="sourcePoint" />
            <mxPoint x="499.5" y="1240" as="targetPoint" />
          </mxGeometry>
        </mxCell>
        <mxCell id="8gCv4Cx4uOkbRDqvgKm4-46" value="&lt;font style=&quot;font-size: 8px;&quot;&gt;Confirmation de création de ticket&lt;/font&gt;" style="rhombus;whiteSpace=wrap;html=1;shadow=0;fontFamily=Helvetica;fontSize=12;align=center;strokeWidth=1;spacing=6;spacingTop=-4;fillColor=#ffe6cc;strokeColor=#d79b00;" vertex="1" parent="WIyWlLk6GJQsqaUBKTNV-1">
          <mxGeometry x="160" y="1350" width="120" height="120" as="geometry" />
        </mxCell>
        <mxCell id="8gCv4Cx4uOkbRDqvgKm4-47" value="" style="rounded=0;html=1;jettySize=auto;orthogonalLoop=1;fontSize=11;endArrow=block;endFill=0;endSize=8;strokeWidth=1;shadow=0;labelBackgroundColor=none;edgeStyle=orthogonalEdgeStyle;" edge="1" parent="WIyWlLk6GJQsqaUBKTNV-1" source="8gCv4Cx4uOkbRDqvgKm4-22" target="WIyWlLk6GJQsqaUBKTNV-11">
          <mxGeometry x="0.3333" y="20" relative="1" as="geometry">
            <mxPoint as="offset" />
            <mxPoint x="220" y="1320" as="sourcePoint" />
            <mxPoint x="220" y="1640" as="targetPoint" />
          </mxGeometry>
        </mxCell>
        <mxCell id="WIyWlLk6GJQsqaUBKTNV-11" value="Fin" style="rounded=1;whiteSpace=wrap;html=1;fontSize=12;glass=0;strokeWidth=1;shadow=0;fillColor=#dae8fc;strokeColor=#6c8ebf;" parent="WIyWlLk6GJQsqaUBKTNV-1" vertex="1">
          <mxGeometry x="160" y="1490" width="120" height="40" as="geometry" />
        </mxCell>
      </root>
    </mxGraphModel>
  </diagram>
</mxfile>
